PathFileType	4	(X/Y/Z)	/Users/niels/Desktop/University/Third Semester/Perception and Action/Exam/Gymnastics Motion Tracking/Code for Gym Tracking/Analyzed Data/Webcam_Backflip/id2001_2_trajectory_Sports2D/id2001_2_trajectory_Sports2D_px_person00.trc
DataRate	CameraRate	NumFrames	NumMarkers	Units	OrigDataRate	OrigDataStartFrame	OrigNumFrames
29.887218045112782	29.887218045112782	10	22	m	29.887218045112782	33	266
Frame#	Time	Hip			RHip			RKnee			RAnkle			RBigToe			RSmallToe			RHeel			LHip			LKnee			LAnkle			LBigToe			LSmallToe			LHeel			Neck			Head			Nose			RShoulder			RElbow			RWrist			LShoulder			LElbow			LWrist		
		X1	Y1	Z1	X2	Y2	Z2	X3	Y3	Z3	X4	Y4	Z4	X5	Y5	Z5	X6	Y6	Z6	X7	Y7	Z7	X8	Y8	Z8	X9	Y9	Z9	X10	Y10	Z10	X11	Y11	Z11	X12	Y12	Z12	X13	Y13	Z13	X14	Y14	Z14	X15	Y15	Z15	X16	Y16	Z16	X17	Y17	Z17	X18	Y18	Z18	X19	Y19	Z19	X20	Y20	Z20	X21	Y21	Z21	X22	Y22	Z22
33	1.1041509433962267	1.004485537245944	-0.7110788101611658	0.0	0.9788896561444457	-0.7294364519927239	0.0	0.9775601890153093	-1.0614604081822994	0.0	0.6144375000000001	-1.0131591796875001	0.0	0.5780625000000004	-1.0279619140625	0.0	0.5727187499999999	-1.0405371093750002	0.0	0.5727187499999999	-0.9774267578124999	0.0	1.0395286375571555	-0.7308784272263434	0.0	1.0304147739184581	-1.0590718801756256	0.0	1.050977416992188	-1.095851440429687	0.0	0.6878120117187501	-1.0321572265625	0.0	0.5439375	-1.0099912109375	0.0	0.6144375000000001	-0.9972509765624998	0.0	1.0091433433565606	-0.23170161877978948	0.0	1.1012612739808885	-0.04517677618069096	0.0	1.1038786301633399	-0.1562911191554183	0.0	0.9680230991942332	-0.23690386923644696	0.0	0.8151876956060248	-0.34147434242184516	0.0	0.9889252636319735	-0.5342302389215995	0.0	1.0344445943399696	-0.28724502658454465	0.0	0.9735128017251153	-0.43242412328222896	0.0	1.047618408523996	-0.5512602416754667	0.0
34	1.1376100628930819	1.0031343079638502	-0.7133781303041395	0.0	0.9781288398876271	-0.7317544896053414	0.0	0.9764812191620371	-1.0619954817152226	0.0	0.6144375000000001	-1.0131591796875001	0.0	0.5780625000000004	-1.0279619140625	0.0	0.5727187499999999	-1.0405371093750002	0.0	0.5727187499999999	-0.9774267578124999	0.0	1.0370490540237676	-0.7335035222869076	0.0	1.0275267843415128	-1.0601078980773744	0.0	1.0509774169921884	-1.095851440429687	0.0	0.6878120117187501	-1.0321572265625	0.0	0.5439375	-1.0099912109375	0.0	0.6144375000000001	-0.9972509765624998	0.0	1.0076667257607457	-0.23180468215794622	0.0	1.1002517275357955	-0.04474455536127764	0.0	1.1031629650395587	-0.15635379545294661	0.0	0.966944893266819	-0.23764536202435718	0.0	0.8141548450711564	-0.3442300744538116	0.0	0.9869981480296031	-0.5393499657154023	0.0	1.0326065028318756	-0.2878484454893875	0.0	0.9675736466948822	-0.4331088108566782	0.0	1.04597630382889	-0.555103226353392	0.0
35	1.1710691823899373	1.0017854030188205	-0.7154860380135241	0.0	0.9775591525834723	-0.7338653150238784	0.0	0.9756212565041388	-1.062230812263665	0.0	0.6144375000000001	-1.0131591796875001	0.0	0.5780625000000004	-1.0279619140625	0.0	0.5727187499999999	-1.0405371093750002	0.0	0.5727187499999999	-0.9774267578124999	0.0	1.0343119684608968	-0.7359471590182434	0.0	1.0245899205352325	-1.0610031833534097	0.0	1.0509774169921888	-1.095851440429687	0.0	0.6878120117187501	-1.0321572265625	0.0	0.5439375	-1.0099912109375	0.0	0.6144375000000001	-0.9972509765624998	0.0	1.0060644788446844	-0.2321048731622066	0.0	1.0992690220561399	-0.04445530429319401	0.0	1.102298592535428	-0.15633698603840535	0.0	0.9658184383395972	-0.23840308068656557	0.0	0.8127749503753061	-0.3470087630013042	0.0	0.9839012348505115	-0.5447047258492445	0.0	1.0308091349652573	-0.2887415512217634	0.0	0.959330946025373	-0.4337075666575493	0.0	1.0439780579914186	-0.5594482438773535	0.0
36	1.2045283018867927	1.0004496998183536	-0.7172205222714598	0.0	0.977157801031873	-0.7355897022246914	0.0	0.9750930051287469	-1.062269594245978	0.0	0.6144375000000001	-1.0131591796875001	0.0	0.5780625000000004	-1.0279619140625	0.0	0.5727187499999999	-1.0405371093750002	0.0	0.5727187499999999	-0.9774267578124999	0.0	1.0314073830844406	-0.7379709627262095	0.0	1.0217939265094016	-1.0617421330164007	0.0	1.0509774169921888	-1.095851440429687	0.0	0.6878120117187501	-1.0321572265625	0.0	0.5439375	-1.0099912109375	0.0	0.6144375000000001	-0.9972509765624998	0.0	1.004398154548158	-0.23257689079253063	0.0	1.0983475860269618	-0.04432973584917008	0.0	1.101299320894346	-0.1562779790376866	0.0	0.9645373687080291	-0.23913973773101094	0.0	0.8110181471805066	-0.34953660695259453	0.0	0.9795929746462471	-0.5502529386392851	0.0	1.0290196618628513	-0.2897791697829136	0.0	0.948358050338257	-0.43394241283601187	0.0	1.0415040128209687	-0.5643704241401775	0.0
37	1.237987421383648	0.9992104509513204	-0.7183650003937334	0.0	0.9767783152121272	-0.7367134556910816	0.0	0.974837088672164	-1.0622514784436288	0.0	0.6144375000000001	-1.0131591796875001	0.0	0.5780625000000004	-1.0279619140625	0.0	0.5727187499999999	-1.0405371093750002	0.0	0.5727187499999999	-0.9774267578124999	0.0	1.0286206324738694	-0.7393712714708615	0.0	1.0194465214445172	-1.0622691359213865	0.0	1.0509774169921882	-1.095851440429687	0.0	0.6878120117187501	-1.0321572265625	0.0	0.5439375	-1.0099912109375	0.0	0.6144375000000001	-0.9972509765624998	0.0	1.002835032915333	-0.2332299867966668	0.0	1.09746466921824	-0.04439640377185276	0.0	1.10015444190197	-0.15623672709193703	0.0	0.9629749180520074	-0.23982898729461538	0.0	0.8088557993415267	-0.35156683298720065	0.0	0.974300301601701	-0.5559320786192885	0.0	1.027366394828084	-0.2909598813890324	0.0	0.9355215476620072	-0.43364245192744494	0.0	1.0385434056123741	-0.5698067018964591	0.0
38	1.2714465408805034	0.9982058663505111	-0.7187162111283835	0.0	0.9762791198324647	-0.7370360260680583	0.0	0.9746497932535926	-1.0622469281532316	0.0	0.6144375000000001	-1.0131591796875001	0.0	0.5780625000000004	-1.0279619140625	0.0	0.5727187499999999	-1.0405371093750002	0.0	0.5727187499999999	-0.9774267578124999	0.0	1.0263540161004814	-0.7400028382207345	0.0	1.0178742699712944	-1.0625371484355373	0.0	1.0509774169921862	-1.095851440429687	0.0	0.6878120117187501	-1.0321572265625	0.0	0.5439375	-1.0099912109375	0.0	0.6144375000000001	-0.9972509765624998	0.0	1.0015367690408936	-0.2340336876744508	0.0	1.096628386761245	-0.04464300608033741	0.0	1.0988714337383294	-0.1562563784259737	0.0	0.9610928527962643	-0.24048196412641837	0.0	0.8062781692428834	-0.35289411313118685	0.0	0.9684638533155788	-0.5614622711216514	0.0	1.026109262330119	-0.29239486058954817	0.0	0.9234964143235744	-0.4329204573436086	0.0	1.0352105311008521	-0.5754403213449845	0.0
39	1.3049056603773588	0.997518825254156	-0.7182643516396661	0.0	0.9755746252697729	-0.7365549107906896	0.0	0.9743044309895063	-1.0622290441227005	0.0	0.6144375000000001	-1.0131591796875001	0.0	0.5780625000000004	-1.0279619140625	0.0	0.5727187499999999	-1.0405371093750002	0.0	0.5727187499999999	-0.9774267578124999	0.0	1.024862399873807	-0.73990970145545	0.0	1.0171738425242356	-1.0625673989066333	0.0	1.050977416992182	-1.0958514404296869	0.0	0.6878120117187501	-1.0321572265625	0.0	0.5439375	-1.0099912109375	0.0	0.6144375000000001	-0.9972509765624998	0.0	1.000575335424002	-0.2348864682233992	0.0	1.095894196562077	-0.04499133348048332	0.0	1.0975098735848239	-0.1563286332058827	0.0	0.9590178203598186	-0.24110627513584257	0.0	0.8033511374205136	-0.3533617158110587	0.0	0.9625913535482127	-0.5662466536503031	0.0	1.0255063101740867	-0.2941737917794623	0.0	0.9164206128509188	-0.4321617318757973	0.0	1.0318551363233521	-0.5807636587571674	0.0
40	1.338364779874214	0.9970847372935056	-0.7172811634619435	0.0	0.9746118913080954	-0.7355594189652483	0.0	0.9737166173858837	-1.0621630508747435	0.0	0.6144375000000001	-1.0131591796875001	0.0	0.5780625000000004	-1.0279619140625	0.0	0.5727187499999999	-1.0405371093750002	0.0	0.5727187499999999	-0.9774267578124999	0.0	1.0240522970280037	-0.7393605317112357	0.0	1.017162525602388	-1.0624576168478876	0.0	1.0509774169921755	-1.0958514404296864	0.0	0.6878120117187501	-1.0321572265625	0.0	0.5439375	-1.0099912109375	0.0	0.6144375000000001	-0.9972509765624998	0.0	0.9999227638195876	-0.23565640318838918	0.0	1.0952811598443755	-0.04536315279652603	0.0	1.0961473601671101	-0.15638552786489235	0.0	0.9569817924542845	-0.2416483835184441	0.0	0.8002450170014535	-0.35293863060703334	0.0	0.957110439457903	-0.5695992163127871	0.0	1.0255789976363525	-0.2961657313284716	0.0	0.9171895632123045	-0.4316393915803211	0.0	1.0289549009253716	-0.5852519182593624	0.0
41	1.3718238993710694	0.9967067093471066	-0.7162351415591727	0.0	0.9733878448245988	-0.7345494909570788	0.0	0.9730166345157664	-1.0620745971197472	0.0	0.6144375000000001	-1.0131591796875001	0.0	0.5780625000000004	-1.0279619140625	0.0	0.5727187499999999	-1.0405371093750002	0.0	0.5727187499999999	-0.9774267578124999	0.0	1.0235257706206546	-0.7387297278763714	0.0	1.0175800044412875	-1.06234333110501	0.0	1.0509774169921677	-1.0958514404296857	0.0	0.6878120117187501	-1.0321572265625	0.0	0.5439375	-1.0099912109375	0.0	0.6144375000000001	-0.9972509765624998	0.0	0.9994535900444722	-0.23624901295878356	0.0	1.0947012789195274	-0.0457165747142605	0.0	1.0948275066909312	-0.15635470430264733	0.0	0.9551797973795786	-0.24206595356737137	0.0	0.7972191030980841	-0.35184650720464394	0.0	0.9523583299956353	-0.5712385746978869	0.0	1.0260180569772264	-0.29801023427442086	0.0	0.9246035350466125	-0.4313097957537372	0.0	1.0268010557716822	-0.5886027403989884	0.0
42	1.4052830188679248	0.9961506483059016	-0.7155596313263414	0.0	0.9719774460506068	-0.7340019208467906	0.0	0.9724709540347163	-1.0619895368556596	0.0	0.6144375000000001	-1.0131591796875001	0.0	0.5780625000000004	-1.0279619140625	0.0	0.5727187499999999	-1.0405371093750002	0.0	0.5727187499999999	-0.9774267578124999	0.0	1.0228154678335355	-0.738311402922112	0.0	1.018113406858511	-1.0623067414487164	0.0	1.050977416992162	-1.095851440429685	0.0	0.6878120117187501	-1.0321572265625	0.0	0.5439375	-1.0099912109375	0.0	0.6144375000000001	-0.9972509765624998	0.0	0.9989851805575832	-0.23664090492659703	0.0	1.0939542467956698	-0.04601381725556852	0.0	1.0935593126356593	-0.15620671514115897	0.0	0.9536819328607351	-0.2424256538513533	0.0	0.7945829293198733	-0.35059417632688666	0.0	0.9486259511192845	-0.5715539864811904	0.0	1.0263995485736244	-0.2993885323387473	0.0	0.9346155821674386	-0.4311714005877155	0.0	1.02540434574129	-0.5909470330368565	0.0
